<?xml version="1.0" standalone="no"?>
<!DOCTYPE svg PUBLIC "-//W3C//DTD SVG 20010904//EN"
 "http://www.w3.org/TR/2001/REC-SVG-20010904/DTD/svg10.dtd">
<svg version="1.0" xmlns="http://www.w3.org/2000/svg"
 width="128.000000pt" height="128.000000pt" viewBox="0 0 128.000000 128.000000"
 preserveAspectRatio="xMidYMid meet">

<g transform="translate(0.000000,128.000000) scale(0.100000,-0.100000)"
fill="#ffffff" stroke="none">
<path d="M64 1155 c-12 -31 4 -45 51 -45 l45 0 0 -380 c0 -416 1 -426 57 -449
19 -8 111 -11 298 -9 l270 3 0 25 0 25 -269 3 c-178 1 -274 6 -283 13 -10 9
-13 79 -13 340 l0 329 446 -2 c411 -3 448 -4 458 -20 8 -14 -2 -56 -48 -195
-32 -98 -67 -202 -78 -231 -33 -88 -26 -86 -383 -92 l-310 -5 0 -25 0 -25 295
-3 c162 -1 310 0 328 3 18 3 51 22 72 41 36 33 44 52 114 262 42 125 76 241
76 257 0 33 -23 67 -57 84 -15 8 -159 11 -467 11 l-445 0 -3 48 -3 47 -73 3
c-58 2 -73 0 -78 -13z"/>
<path d="M211 196 c-87 -48 -50 -186 49 -186 51 0 100 49 100 99 0 75 -83 124
-149 87z m79 -61 c26 -32 -13 -81 -47 -59 -10 6 -19 19 -21 28 -8 38 43 61 68
31z"/>
<path d="M711 196 c-87 -48 -50 -186 49 -186 51 0 100 49 100 99 0 75 -83 124
-149 87z m79 -61 c15 -18 10 -45 -12 -59 -35 -22 -74 27 -48 59 16 19 44 19
60 0z"/>
</g>
</svg>
